/* XPM */
static char *icon[] = {
/* columns rows colors chars-per-pixel */
"75 75 215 2 ",
"   c #90A1BA",
".  c #91A1BA",
"X  c #91A2BA",
"o  c #91A2BB",
"O  c #92A2BA",
"+  c #92A2BB",
"@  c #92A3BB",
"#  c #93A3BB",
"$  c #93A4BB",
"%  c #93A3BC",
"&  c #93A4BC",
"*  c #94A4BC",
"=  c #94A5BC",
"-  c #94A4BD",
";  c #94A5BD",
":  c #95A5BD",
">  c #96A6BD",
",  c #96A6BE",
"<  c #97A7BE",
"1  c #98A7BF",
"2  c #98A8BF",
"3  c #99A8BF",
"4  c #99A9BF",
"5  c #9AA9BF",
"6  c #99A8C0",
"7  c #9AA9C0",
"8  c #9AAAC0",
"9  c #9BAAC0",
"0  c #9BAAC1",
"q  c #9CABC1",
"w  c #9DACC2",
"e  c #9EADC2",
"r  c #9EADC3",
"t  c #9FADC3",
"y  c #9FAEC3",
"u  c #A0AEC4",
"i  c #A0AFC4",
"p  c #A1AFC4",
"a  c #A2B0C5",
"s  c #A2B1C5",
"d  c #A3B1C5",
"f  c #A3B1C6",
"g  c #A4B1C6",
"h  c #A4B2C6",
"j  c #A5B3C7",
"k  c #A6B3C7",
"l  c #A6B4C8",
"z  c #A7B4C8",
"x  c #A7B5C8",
"c  c #A8B5C8",
"v  c #A8B5C9",
"b  c #A8B6C9",
"n  c #A9B6C9",
"m  c #AAB7CA",
"M  c #ABB8CB",
"N  c #ACB8CB",
"B  c #ACB9CB",
"V  c #ADB9CB",
"C  c #ADB9CC",
"Z  c #AEBACC",
"A  c #AEBBCD",
"S  c #AFBBCD",
"D  c #B0BCCE",
"F  c #B1BCCE",
"G  c #B0BDCE",
"H  c #B1BDCE",
"J  c #B1BDCF",
"K  c #B2BDCE",
"L  c #B2BDCF",
"P  c #B2BECF",
"I  c #B3BECF",
"U  c #B4BFD0",
"Y  c #B6C1D1",
"T  c #B6C1D2",
"R  c #B7C1D2",
"E  c #B7C2D2",
"W  c #B8C3D2",
"Q  c #B9C3D2",
"!  c #B9C3D3",
"~  c #BAC5D3",
"^  c #BAC5D4",
"/  c #BBC5D4",
"(  c #BBC5D5",
")  c #BBC6D5",
"_  c #BCC6D5",
"`  c #BDC7D6",
"'  c #BEC8D6",
"]  c #BEC9D6",
"[  c #BFC8D7",
"{  c #BFC9D7",
"}  c #C0CAD7",
"|  c #C0CAD8",
" . c #C1CAD8",
".. c #C2CBD8",
"X. c #C2CCD9",
"o. c #C3CCDA",
"O. c #C3CDDA",
"+. c #C4CCDA",
"@. c #C4CDDA",
"#. c #C5CEDB",
"$. c #C6CEDA",
"%. c #C6CFDB",
"&. c #C7CFDC",
"*. c #C9D1DD",
"=. c #C9D2DE",
"-. c #CAD2DE",
";. c #CBD3DE",
":. c #CBD3DF",
">. c #CCD4DF",
",. c #CDD5DF",
"<. c #CDD4E0",
"1. c #CDD5E0",
"2. c #CED5E0",
"3. c #CFD6E0",
"4. c #CFD6E1",
"5. c #CFD7E1",
"6. c #D0D6E1",
"7. c #D0D6E2",
"8. c #D0D7E2",
"9. c #D1D8E2",
"0. c #D2D8E3",
"q. c #D2D9E3",
"w. c #D3DAE3",
"e. c #D4DAE4",
"r. c #D5DBE4",
"t. c #D5DBE5",
"y. c #D6DCE5",
"u. c #D7DCE5",
"i. c #D7DCE6",
"p. c #D7DDE6",
"a. c #D8DEE6",
"s. c #D9DEE6",
"d. c #D8DEE7",
"f. c #D9DEE7",
"g. c #DADFE8",
"h. c #DAE0E8",
"j. c #DBE1E8",
"k. c #DBE1E9",
"l. c #DCE1E9",
"z. c #DDE2E9",
"x. c #DDE2EA",
"c. c #DEE3EA",
"v. c #DFE4EA",
"b. c #E0E4EB",
"n. c #E0E5EB",
"m. c #E0E4EC",
"M. c #E0E5EC",
"N. c #E1E6EC",
"B. c #E3E7ED",
"V. c #E4E7EE",
"C. c #E4E8EE",
"Z. c #E5E8EE",
"A. c #E5E9EE",
"S. c #E5E9EF",
"D. c #E6E9EF",
"F. c #E6EAEF",
"G. c #E7EAEF",
"H. c #E7EBF0",
"J. c #E8ECF1",
"K. c #E9ECF1",
"L. c #E9EDF1",
"P. c #EAEDF1",
"I. c #E9EDF2",
"U. c #EAEDF2",
"Y. c #EBEEF2",
"T. c #EBEEF3",
"R. c #ECEEF2",
"E. c #ECEFF3",
"W. c #EDEFF3",
"Q. c #EDF0F3",
"!. c #EEF0F4",
"~. c #EEF1F4",
"^. c #EFF1F5",
"/. c #EFF2F5",
"(. c #F0F2F5",
"). c #F0F3F5",
"_. c #F0F2F6",
"`. c #F1F3F6",
"'. c #F2F3F6",
"]. c #F1F4F6",
"[. c #F1F4F7",
"{. c #F2F4F6",
"}. c #F2F4F7",
"|. c #F3F5F7",
" X c #F4F5F8",
".X c #F4F6F8",
"XX c #F5F6F8",
"oX c #F5F6F9",
"OX c #F5F7F9",
"+X c #F6F7F9",
"@X c #F7F7F9",
"#X c #F6F8FA",
"$X c #F7F8FA",
"%X c #F8F9FA",
"&X c #F8F8FB",
"*X c #F8F9FB",
"=X c #F9F9FB",
"-X c #F9FAFB",
";X c #FAFAFB",
":X c #FAFBFB",
">X c #FBFBFB",
",X c #FAFAFC",
"<X c #FAFBFC",
"1X c #FBFBFC",
"2X c #FBFCFC",
"3X c #FBFCFD",
"4X c gray99",
"5X c #FCFCFD",
"6X c #FCFDFD",
"7X c #FDFDFD",
"8X c #FDFDFE",
"9X c #FDFEFE",
"0X c #FEFEFE",
"qX c gray100",
"wX c None",
/* pixels */
"wXwXwXwXwXwXwXwXwXwXwXwXwXwXwXwXwXwXwXwXwXwXwXwXwXwXwXwXwXwXwXwXwXwXwXwXwXwXwXwXwXwXwXwXwXwXwXwXwXwXwXwXwXwXwXwXwXwXwXwXwXwXwXwXwXwXwXwXwXwXwXwXwXwXwX",
"wXwXwXwXwXwXwXwXwXwXwXwXwXwXwXwXwXwXwXwXwXwXwXwXwXwXwXwXwXwXwXwXwXwXwXwXwXwXwXwXwXwXwXwXwXwXwXwXwXwXwXwXwXwXwXwXwXwXwXwXwXwXwXwXwXwXwXwXwXwXwXwXwXwXwX",
"wXwXwXwXwXwXwXwXwXwXwXwXwXwXwXwXwXwXwXwXwXwXwXwXwXwXwXwXwXwXwXwXwXwXwXwXwXwXwXwXwXwXwXwXwXwXwXwXwXwXwXwXwXwXwXwXwXwXwXwXwXwXwXwXwXwXwXwXwXwXwXwXwXwXwX",
"wXwXwXwXwXwXwXwXwXwXwXwXwXwXwXwXwXwXwXwXwXwXwXwXwXwXwXwXwXwXwXwXwXwXwXwXwXwXwXwXwXwXwXwXwXwXwXwXwXwXwXwXwXwXwXwXwXwXwXwXwXwXwXwXwXwXwXwXwXwXwXwXwXwXwX",
"wXwXwXwXwXwXwXwXwXwXwXwXwXwXwXwXwXwXwXwXwXwXwXwXwXwXwXwXwXwXwXwXwXwXwXwXwXwXwXwXwXwXwXwXwXwXwXwXwXwXwXwXwXwXwXwXwXwXwXwXwXwXwXwXwXwXwXwXwXwXwXwXwXwXwX",
"wXwXwXwXwXwXwXwXwXwXwXwXwXwXwXwXwXwXwXwXwXwXwXwXwXwXwXwXwXwXwXwXwXwXwXwXwXwXwXwXwXwXwXwXwXwXwXwXwXwXwXwXwXwXwXwXwXwXwXwXwXwXwXwXwXwXwXwXwXwXwXwXwXwXwX",
"wXwXwXwXwXwXwXwXwXwXwXwXwXwXwXwXwXwXwXwXwXwXwXwXwXwXwXwXwXwXwXwXwXwXwXqXqXqXqXqXqXqXqXwXwXwXwXwXwXwXwXwXwXwXwXwXwXwXwXwXwXwXwXwXwXwXwXwXwXwXwXwXwXwXwX",
"wXwXwXwXwXwXwXwXwXwXwXwXwXwXwXwXwXwXwXwXwXwXwXwXwXwXwXwXwXwXqXqXqXqXqXqXqXqXqXqXqXqXqXqXqXqXqXqXwXwXwXwXwXwXwXwXwXwXwXwXwXwXwXwXwXwXwXwXwXwXwXwXwXwXwX",
"wXwXwXwXwXwXwXwXwXwXwXwXwXwXwXwXwXwXwXwXwXwXwXwXwXwXwXqXqXqXqXqXqXqXqXqXqXqXqXqXqXqXqXqXqXqXqXqXqXqXqXwXwXwXwXwXwXwXwXwXwXwXwXwXwXwXwXwXwXwXwXwXwXwXwX",
"wXwXwXwXwXwXwXwXwXwXwXwXwXwXwXwXwXwXwXwXwXwXwXwXqXqXqXqXqXqXqXqXqXqXqXqXqXqXqXqXqXqXqXqXqXqXqXqXqXqXqXqXqXqXwXwXwXwXwXwXwXwXwXwXwXwXwXwXwXwXwXwXwXwXwX",
"wXwXwXwXwXwXwXwXwXwXwXwXwXwXwXwXwXwXwXwXwXwXqXqXqXqXqXqXqXqXqXqXqXqXqXqXqXqXqXqXqXqXqXqXqXqXqXqXqXqXqXqXqXqXqXqXwXwXwXwXwXwXwXwXwXwXwXwXwXwXwXwXwXwXwX",
"wXwXwXwXwXwXwXwXwXwXwXwXwXwXwXwXwXwXwXwXwXqXqXqXqXqXqXqXqXqXqXqXqXqXqXqXqXqXqXqXqXqXqXqXqXqXqXqXqXqXqXqXqXqXqXqXqXwXwXwXwXwXwXwXwXwXwXwXwXwXwXwXwXwXwX",
"wXwXwXwXwXwXwXwXwXwXwXwXwXwXwXwXwXwXwXqXqXqXqXqXqXqXqXqXqXqXqXqXqXqXqXqXqXqXqXqXqXqXqXqXqXqXqXqXqXqXqXqXqXqXqXqXqXqXqXwXwXwXwXwXwXwXwXwXwXwXwXwXwXwXwX",
"wXwXwXwXwXwXwXwXwXwXwXwXwXwXwXwXwXwXqXqXqXqXqXqXqXqXqXqXqXqXqXqXqXqXqXqXqXqXqXqXqXqXqXqXqXqXqXqXqXqXqXqXqXqXqXqXqXqXqXqXwXwXwXwXwXwXwXwXwXwXwXwXwXwXwX",
"wXwXwXwXwXwXwXwXwXwXwXwXwXwXwXwXwXqXqXqXqXqXqXqXqXqXqXqXqXqXqXqXqXqXqXqXqXqXqXqXqXqXqXqXqXqXqXqXqXqXqXqXqXqXqXqXqXqXqXqXqXwXwXwXwXwXwXwXwXwXwXwXwXwXwX",
"wXwXwXwXwXwXwXwXwXwXwXwXwXwXwXwXqXqXqXqXqXqXqXqXqXqXqXqXqXqXqXqXqXqXqXqXqXqXqXqXqXqXqXqXqXqXqXqXqXqXqXqXqXqXqXqXqXqXqXqXqXqXwXwXwXwXwXwXwXwXwXwXwXwXwX",
"wXwXwXwXwXwXwXwXwXwXwXwXwXwXwXqXqXqXqXqXqXqXqXqXqXqXqXqXqXqXqXqXqXqXqXqXqXqXqXqXqXqXqXqXqXqXqXqXqX2X2XqX>XqX>X=X=XqXqXqXqXqXqXwXwXwXwXwXwXwXwXwXwXwXwX",
"wXwXwXwXwXwXwXwXwXwXwXwXwXwXqXqXqXqXqXqXqXqXqXqXqXqXqXqXqXqXqXqX>X>XqX4XqXqXqXqXqXqXqX1X$X(.K.S.V.V.S.C.S.S.v.v.v.S.!.$X>XqXqXqXwXwXwXwXwXwXwXwXwXwXwX",
"wXwXwXwXwXwXwXwXwXwXwXwXwXqXqXqXqXqXqXqXqXqXqXqXqXqXqXqXqXqXqXqXqX2XqXqXqX4XqXqXqXqX>XW.v.5.$.` ( ( ( ( / R R Y ( o.e.S.|.qXqXqXqXwXwXwXwXwXwXwXwXwXwX",
"wXwXwXwXwXwXwXwXwXwXwXwXqXqXqXqXqXqXqXqXqXqXqXqXqXqXqXqXqXqXqXqXqXqXqXqXqXqXqXqXqX>XK.,.R k p 5 4 1 8 8 4 4 1 4 4 p G -.S.@XqXqXqXqXwXwXwXwXwXwXwXwXwX",
"wXwXwXwXwXwXwXwXwXwXwXqXqXqXqXqXqXqXqXqXqXqXqXqXqXqXqXqXqXqXqXqXqXqXqXqXqXqXqXqX=XH.-.N w #                         w R v.|.qXqXqXqXqXwXwXwXwXwXwXwXwX",
"wXwXwXwXwXwXwXwXwXwXwXqXqXqXqXqXqXqXqXqXqXqXqXqXqXqXqXqXqXqXqXqXqXqXqXqXqXqXqX4XW.5.C 1                             : C 0.!.2XqXqXqXqXwXwXwXwXwXwXwXwX",
"wXwXwXwXwXwXwXwXwXwXqXqXqXqXqXqXqXqXqXqXqXqXqXqXqXqXqXqXqXqXqXqXqXqXqXqXqXqX4X(.0.G 4                               4 G a.!.2XqXqXqXqXqXwXwXwXwXwXwXwX",
"wXwXwXwXwXwXwXwXwXwXqXqXqXqXqXqXqXqXqXqXqXqXqXqXqXqXqXqXqXqXqXqXqXqXqXqXqXqX(.0.F w                     $     $ * 8 c } N.$XqXqXqXqXqXqXwXwXwXwXwXwXwX",
"wXwXwXwXwXwXwXwXwXqXqXqXqXqXqXqXqXqXqXqXqXqXqXqXqXqXqXqXqXqXqXqXqXqXqXqXqX|.e.G w             : : 4 1 4 w 8 w a c I $.h.(.=XqXqXqXqXqXqXqXwXwXwXwXwXwX",
"wXwXwXwXwXwXwXwXwXqXqXqXqXqXqXqXqXqXqXqXqXqXqXqXqXqXqXqXqXqXqXqXqXqXqXqX@XV.` w           # 4 k G R ` ` ` ] o.$.<.f.S.!.2XqXqXqXqXqXqXqXqXwXwXwXwXwXwX",
"wXwXwXwXwXwXwXwXqXqXqXqXqXqXqXqXqXqXqXqXqXqXqXqXqXqXqXqXqXqXqXqXqXqXqXqX|.0.c :           w G ;.v.V.S.S.H.K.K.E.(. X>X>XqXqXqXqXqXqXqXqXqXqXwXwXwXwXwX",
"wXwXwXwXwXwXwXwXqXqXqXqXqXqXqXqXqXqXqXqXqXqXqXqXqXqXqXqXqXqXqXqXqXqXqX>XE.#.p           4 C 0.!.>X>X>X>XqX=X>XqXqX1XqXqXqXqXqXqXqXqXqXqXqXqXwXwXwXwXwX",
"wXwXwXwXwXwXwXqXqXqXqXqXqXqXqXqXqXqXqXqXqXqXqXqXqXqXqXqXqXqXqXqXqXqXqX>XS./ 4         $ a $.K.qXqXqXqXqXqXqXqXqXqXqXqXqXqXqXqXqXqXqXqXqXqXqXqXwXwXwXwX",
"wXwXwXwXwXwXwXqXqXqXqXqXqXqXqXqXqXqXqXqXqXqXqXqXqXqXqXqXqXqXqXqXqXqXqX>XN.I :         : C h.>XqXqXqXqXqXqXqXqXqXqXqXqXqXqXqXqXqXqXqXqXqXqXqXqXwXwXwXwX",
"wXwXwXwXwXwXwXqXqXqXqXqXqXqXqXqXqXqXqXqXqXqXqXqXqXqXqXqXqXqXqXqXqXqXqX$Xe.c :         w { T.1XqXqXqXqXqXqXqXqXqXqXqXqXqXqXqXqXqXqXqXqXqXqXqXqXwXwXwXwX",
"wXwXwXwXwXwXwXqXqXqXqXqXqXqXqXqXqXqXqXqXqXqXqXqXqXqXqXqXqXqXqXqXqXqXqX!.-.k         % j 5.|.qXqXqXqXqXqXqXqXqXqXqXqXqXqXqXqXqXqXqXqXqXqXqXqXqXwXwXwXwX",
"wXwXwXwXwXwXwXqXqXqXqXqXqXqXqXqXqXqXqXqXqXqXqXqXqXqXqXqXqXqXqXqXqXqX2XJ.] 8 %       : G g.@XqXqXqXqXqXqXqXqXqXqXqXqXqXqXqXqXqXqXqXqXqXqXqXqXqXwXwXwXwX",
"wXwXwXwXwXwXqXqXqXqXqXqXqXqXqXqXqXqXqXqXqXqXqXqXqXqXqXqXqXqXqXqXqXqX=Xv.U :         8 ( S.2XqXqXqXqXqXqXqXqXqXqXqXqXqXqXqXqXqXqXqXqXqXqXqXqXqXqXwXwXwX",
"wXwXwXwXwXwXqXqXqXqXqXqXqXqXqXqXqXqXqXqXqXqXqXqXqXqXqXqXqXqXqXqXqXqX$Xe.M ;         y $.!.qXqXqXqXqXqXqXqXqXqXqXqXqXqXqXqXqXqXqXqXqXqXqXqXqXqXqXwXwXwX",
"wXwXwXwXwXwXqXqXqXqXqXqXqXqXqXqXqXqXqXqXqXqXqXqXqXqXqXqXqXqXqXqXqXqX(.1.a %       ; b 0.|.qXqXqXqXqXqXqXqXqXqXqXqXqXqXqXqXqXqXqXqXqXqXqXqXqXqXqXwXwXwX",
"wXwXwXwXwXwXqXqXqXqXqXqXqXqXqXqXqXqXqXqXqXqXqXqXqXqXqXqXqXqXqXqXqX2XK.} w         : U h.>XqXqXqXqXqXqXqXqXqXqXqXqXqXqXqXqXqXqXqXqXqXqXqXqXqXqXqXwXwXwX",
"wXwXwXwXwXwXqXqXqXqXqXqXqXqXqXqXqXqXqXqXqXqXqXqXqXqXqXqXqXqXqXqXqX>XV.Y 4         8 ( V.=XqXqXqXqXqXqXqXqXqXqXqXqXqXqXqXqXqXqXqXqXqXqXqXqXqXqXqXwXwXwX",
"wXwXwXwXwXwXqXqXqXqXqXqXqXqXqXqXqXqXqXqXqXqXqXqXqXqXqXqXqXqXqXqXqX$X0.c ;         p o.!.qXqXqXqXqXqXqXqXqXqXqXqXqXqXqXqXqXqXqXqXqXqXqXqXqXqXqXqXwXwXwX",
"wXwXwXwXwXwXqXqXqXqXqXqXqXqXqXqXqXqXqXqXqXqXqXqXqXqXqXqXqXqXqXqX2XS.} w           k ,.(.qXqXqXqXqXqXqXqXqXqXqXqXqXqXqXqXqXqXqXqXqXqXqXqXqXqXqXqXwXwXwX",
"wXwXwXwXwXwXqXqXqXqXqXqXqXqXqXqXqXqXqXqXqXqXqXqXqXqXqXqXqXqXqX2X!.,.M :         : C s.>XqXqXqXqXqXqXqXqXqXqXqXqXqXqXqXqXqXqXqXqXqXqXqXqXqXqXqXqXwXwXwX",
"wXwXwXwXwXwXwXqXqXqXqXqXqXqXqXqXqXqXqXqXqXqXqXqXqXqXqXqXqX2X>XK.-.S w           8 / S.=XqXqXqXqXqXqXqXqXqXqXqXqXqXqXqXqXqXqXqXqXqXqXqXqXqXqXqXwXwXwXwX",
"wXwXwXwXwXwXwXqXqXqXqXqXqXqXqXqXqXqXqXqXqXqXqXqXqXqXqXqXqX|.V.o.N w           $ k ,.|.qXqXqXqXqXqXqXqXqXqXqXqXqXqXqXqXqXqXqXqXqXqXqXqXqXqXqXqXwXwXwXwX",
"wXwXwXwXwXwXwXqXqXqXqXqXqXqX>X$X|.!.!.!.!.!.(.(.|.@X@X@XK.a.( a 1             8 Y s. XqXqXqXqXqXqXqXqXqXqXqXqXqXqXqXqXqXqXqXqXqXqXqXqXqXqXqXqXwXwXwXwX",
"wXwXwXwXwXwXwXqXqXqXqXqX2X$XE.N.e.5.-.-.-.-.5.5.8.0.0.5.} C w ;           $ 4 N 5.!.2XqXqXqXqXqXqXqX2XqXqXqXqXqXqXqXqXqXqXqXqXqXqXqXqXqXqXqXqXwXwXwXwX",
"wXwXwXwXwXwXwXqXqXqXqX2X$XV.0.` F k k k a a a a k k k a w 1               w C -.K.@XqXqXqXqXqXqXqXqXqXqXqXqXqXqXqXqXqXqXqXqXqXqXqXqXqXqXqXqXqXwXwXwXwX",
"wXwXwXwXwXwXwXwXqXqXqX2XK.0.G w : % :     *       : *                 $ p G ,.K.2XqXqXqXqXqXqXqXqXqXqX=XqXqXqXqXqXqXqXqXqXqXqXqXqXqXqXqXqXqXwXwXwXwXwX",
"wXwXwXwXwXwXwXwXqXqXqX XV.o.a %                                     : k ( a.!.=XqXqXqXqXqXqXqXqXqXqXqX2XqXqXqXqXqXqXqXqXqXqXqXqXqXqXqXqXqXqXwXwXwXwXwX",
"wXwXwXwXwXwXwXwXwXqXqX|.V.] w %                                 % 8 M o.v.|.=XqXqXqXqXqXqXqXqXqXqXqX=XqXqXqXqXqXqXqXqXqXqXqXqXqXqXqXqXqXqXwXwXwXwXwXwX",
"wXwXwXwXwXwXwXwXwXqXqX>XC.$.j : %                             % 8 C -.J.>XqXqXqXqXqXqXqXqXqXqXqXqX>XqXqXqXqXqXqXqXqXqXqXqXqXqXqXqXqXqXqXqXwXwXwXwXwXwX",
"wXwXwXwXwXwXwXwXwXwXqX=X!.a.( b w < : : ; : : ; ;   ;   $   : w S 8.W.2XqXqXqXqXqXqXqXqXqXqXqX2X=X>XqXqXqXqXqXqXqXqXqXqXqXqXqXqXqXqXqXqXwXwXwXwXwXwXwX",
"wXwXwXwXwXwXwXwXwXwXqXqX=X!.h.-.( Y U S S S S C M M b k k k S ] g.!.2XqXqXqXqXqXqXqXqXqXqXqXqX=X@XqXqXqXqXqXqXqXqXqXqXqXqXqXqXqXqXqXqXqXwXwXwXwXwXwXwX",
"wXwXwXwXwXwXwXwXwXwXwXqXqX=X|.K.V.v.h.g.h.h.v.g.f.r.0.0.3.0.f.S.|.qXqXqXqXqXqXqXqXqXqXqXqX=X>X$XqXqXqXqXqXqXqXqXqXqXqXqXqXqXqXqXqXqXqXwXwXwXwXwXwXwXwX",
"wXwXwXwXwXwXwXwXwXwXwXqXqXqXqX2XqX=X>X>X=X@X>X>X2X@X$X$X|..X X>XqXqXqXqXqXqXqXqXqX2XqX=X>X$XqXqXqXqXqXqXqXqXqXqXqXqXqXqXqXqXqXqXqXqXqXwXwXwXwXwXwXwXwX",
"wXwXwXwXwXwXwXwXwXwXwXwXqXqXqXqXqXqXqXqXqXqXqXqXqXqXqXqXqXqXqXqXqXqXqXqXqXqXqXqXqXqX2X>X$XqXqXqXqXqXqXqXqXqXqXqXqXqXqXqXqXqXqXqXqXqXwXwXwXwXwXwXwXwXwX",
"wXwXwXwXwXwXwXwXwXwXwXwXwXqXqXqXqXqXqXqXqXqXqXqXqXqXqXqXqXqXqXqXqXqX2XqXqXqX2XqX=X@X|.qXqXqXqXqXqXqXqXqXqXqXqXqXqXqXqXqXqXqXqXqXqXwXwXwXwXwXwXwXwXwXwX",
"wXwXwXwXwXwXwXwXwXwXwXwXwXwXqXqXqXqXqXqXqXqXqXqXqXqXqXqXqXqXqX2X2XqXqX2X2X=X=X>XqXqXqXqXqXqXqXqXqXqXqXqXqXqXqXqXqXqXqXqXqXqXqXqXwXwXwXwXwXwXwXwXwXwXwX",
"wXwXwXwXwXwXwXwXwXwXwXwXwXwXwXqXqXqXqXqXqXqXqXqXqXqXqXqXqXqXqXqXqX=X=XqXqXqXqXqXqXqXqXqXqXqXqXqXqXqXqXqXqXqXqXqXqXqXqXqXqXqXqXwXwXwXwXwXwXwXwXwXwXwXwX",
"wXwXwXwXwXwXwXwXwXwXwXwXwXwXwXwXqXqXqXqXqXqXqXqXqXqXqXqXqXqXqXqXqXqXqXqXqXqXqXqXqXqXqXqXqXqXqXqXqXqXqXqXqXqXqXqXqXqXqXqXqXqXwXwXwXwXwXwXwXwXwXwXwXwXwX",
"wXwXwXwXwXwXwXwXwXwXwXwXwXwXwXwXwXqXqXqXqXqXqXqXqXqXqXqXqXqXqXqXqXqXqXqXqXqXqXqXqXqXqXqXqXqXqXqXqXqXqXqXqXqXqXqXqXqXqXqXqXwXwXwXwXwXwXwXwXwXwXwXwXwXwX",
"wXwXwXwXwXwXwXwXwXwXwXwXwXwXwXwXwXwXqXqXqXqXqXqXqXqXqXqXqXqXqXqXqXqXqXqXqXqXqXqXqXqXqXqXqXqXqXqXqXqXqXqXqXqXqXqXqXqXqXqXwXwXwXwXwXwXwXwXwXwXwXwXwXwXwX",
"wXwXwXwXwXwXwXwXwXwXwXwXwXwXwXwXwXwXwXqXqXqXqXqXqXqXqXqXqXqXqXqXqXqXqXqXqXqXqXqXqXqXqXqXqXqXqXqXqXqXqXqXqXqXqXqXqXqXqXwXwXwXwXwXwXwXwXwXwXwXwXwXwXwXwX",
"wXwXwXwXwXwXwXwXwXwXwXwXwXwXwXwXwXwXwXwXwXqXqXqXqXqXqXqXqXqXqXqXqXqXqXqXqXqXqXqXqXqXqXqXqXqXqXqXqXqXqXqXqXqXqXqXqXwXwXwXwXwXwXwXwXwXwXwXwXwXwXwXwXwXwX",
"wXwXwXwXwXwXwXwXwXwXwXwXwXwXwXwXwXwXwXwXwXwXqXqXqXqXqXqXqXqXqXqXqXqXqXqXqXqXqXqXqXqXqXqXqXqXqXqXqXqXqXqXqXqXqXqXwXwXwXwXwXwXwXwXwXwXwXwXwXwXwXwXwXwXwX",
"wXwXwXwXwXwXwXwXwXwXwXwXwXwXwXwXwXwXwXwXwXwXwXwXqXqXqXqXqXqXqXqXqXqXqXqXqXqXqXqXqXqXqXqXqXqXqXqXqXqXqXqXqXqXwXwXwXwXwXwXwXwXwXwXwXwXwXwXwXwXwXwXwXwXwX",
"wXwXwXwXwXwXwXwXwXwXwXwXwXwXwXwXwXwXwXwXwXwXwXwXwXwXwXqXqXqXqXqXqXqXqXqXqXqXqXqXqXqXqXqXqXqXqXqXqXqXqXwXwXwXwXwXwXwXwXwXwXwXwXwXwXwXwXwXwXwXwXwXwXwXwX",
"wXwXwXwXwXwXwXwXwXwXwXwXwXwXwXwXwXwXwXwXwXwXwXwXwXwXwXwXwXwXqXqXqXqXqXqXqXqXqXqXqXqXqXqXqXqXqXqXwXwXwXwXwXwXwXwXwXwXwXwXwXwXwXwXwXwXwXwXwXwXwXwXwXwXwX",
"wXwXwXwXwXwXwXwXwXwXwXwXwXwXwXwXwXwXwXwXwXwXwXwXwXwXwXwXwXwXwXwXwXwXwXqXqXqXqXqXqXqXqXwXwXwXwXwXwXwXwXwXwXwXwXwXwXwXwXwXwXwXwXwXwXwXwXwXwXwXwXwXwXwXwX",
"wXwXwXwXwXwXwXwXwXwXwXwXwXwXwXwXwXwXwXwXwXwXwXwXwXwXwXwXwXwXwXwXwXwXwXwXwXwXwXwXwXwXwXwXwXwXwXwXwXwXwXwXwXwXwXwXwXwXwXwXwXwXwXwXwXwXwXwXwXwXwXwXwXwXwX",
"wXwXwXwXwXwXwXwXwXwXwXwXwXwXwXwXwXwXwXwXwXwXwXwXwXwXwXwXwXwXwXwXwXwXwXwXwXwXwXwXwXwXwXwXwXwXwXwXwXwXwXwXwXwXwXwXwXwXwXwXwXwXwXwXwXwXwXwXwXwXwXwXwXwXwX",
"wXwXwXwXwXwXwXwXwXwXwXwXwXwXwXwXwXwXwXwXwXwXwXwXwXwXwXwXwXwXwXwXwXwXwXwXwXwXwXwXwXwXwXwXwXwXwXwXwXwXwXwXwXwXwXwXwXwXwXwXwXwXwXwXwXwXwXwXwXwXwXwXwXwXwX",
"wXwXwXwXwXwXwXwXwXwXwXwXwXwXwXwXwXwXwXwXwXwXwXwXwXwXwXwXwXwXwXwXwXwXwXwXwXwXwXwXwXwXwXwXwXwXwXwXwXwXwXwXwXwXwXwXwXwXwXwXwXwXwXwXwXwXwXwXwXwXwXwXwXwXwX",
"wXwXwXwXwXwXwXwXwXwXwXwXwXwXwXwXwXwXwXwXwXwXwXwXwXwXwXwXwXwXwXwXwXwXwXwXwXwXwXwXwXwXwXwXwXwXwXwXwXwXwXwXwXwXwXwXwXwXwXwXwXwXwXwXwXwXwXwXwXwXwXwXwXwXwX",
"wXwXwXwXwXwXwXwXwXwXwXwXwXwXwXwXwXwXwXwXwXwXwXwXwXwXwXwXwXwXwXwXwXwXwXwXwXwXwXwXwXwXwXwXwXwXwXwXwXwXwXwXwXwXwXwXwXwXwXwXwXwXwXwXwXwXwXwXwXwXwXwXwXwXwX",
"wXwXwXwXwXwXwXwXwXwXwXwXwXwXwXwXwXwXwXwXwXwXwXwXwXwXwXwXwXwXwXwXwXwXwXwXwXwXwXwXwXwXwXwXwXwXwXwXwXwXwXwXwXwXwXwXwXwXwXwXwXwXwXwXwXwXwXwXwXwXwXwXwXwXwX"
};
